<?xml version="1.0" encoding="UTF-8"?><svg xmlns="http://www.w3.org/2000/svg" viewBox="0 0 1297.84 1390.93"><defs><style>.d,.e,.f{stroke:#edeeef;stroke-miterlimit:10;stroke-width:5px;}.d,.g{fill:#eee;}.e{fill:#0b0b0b;}.f{fill:none;}</style></defs><g id="a"/><g id="b"><g id="c"><g><path class="f" d="M693.33,313.75V0"/><path class="d" d="M693.33,206.96V124.21c60.24,74.94,120.48,149.89,180.73,224.83,4.32,184.43,8.64,368.85,12.95,553.28l236.55,130.87v-376.98c57.26,70.93,114.52,141.87,171.78,212.8v518.12l-602.01-259.06V306.89"/><line class="e" x1="693.33" y1="1128.07" x2="693.33" y2="206.96"/><polygon class="g" points="171.35 1387.14 658.64 1175.36 1133.58 1387.14 171.35 1387.14"/><path class="f" d="M604.51,313.75V0"/><path class="d" d="M604.51,206.96V124.21c-60.24,74.94-120.48,149.89-180.73,224.83-4.32,184.43-8.64,368.85-12.95,553.28l-236.55,130.87v-376.98c-57.26,70.93-114.52,141.87-171.78,212.8v518.12l602.01-259.06V306.89"/></g></g></g></svg>